<svg width="110" height="110" viewBox="0 0 110 110" fill="none" xmlns="http://www.w3.org/2000/svg">
<path d="M39.9488 65.6171C38.4241 67.1445 36.5465 67.9167 34.375 67.9167C32.2032 67.9167 30.3255 67.1443 28.8006 65.6165C28.8003 65.6162 28.7999 65.6158 28.7996 65.6155L29.5075 64.9092L39.9488 65.6171ZM39.9488 65.6171C41.4773 64.0921 42.25 62.214 42.25 60.0417C42.25 57.8697 41.4776 55.9919 39.9496 54.4671C38.4247 52.9391 36.5469 52.1667 34.375 52.1667C32.2032 52.1667 30.3255 52.939 28.8006 54.4668L39.9488 65.6171ZM27.5 79.6667H26.5V80.6667V85.25C26.5 86.2973 26.1573 87.1264 25.4775 87.8062C24.7939 88.4898 23.9629 88.8333 22.9167 88.8333H18.3333C17.2871 88.8333 16.4584 88.4899 15.7783 87.8075L15.7759 87.805C15.0935 87.125 14.75 86.2962 14.75 85.25V48.7533L24.3189 21.4137L24.3213 21.4066L24.3237 21.3996C24.7146 20.2268 25.4065 19.294 26.4191 18.5763L26.4201 18.5756C27.4333 17.8556 28.5478 17.5 29.7917 17.5H80.2083C81.4523 17.5 82.5688 17.8556 83.5855 18.5763C84.5947 19.2937 85.2853 20.2264 85.6763 21.3996L85.6787 21.4066L85.6811 21.4137L95.25 48.7533V85.25C95.25 86.2962 94.9065 87.125 94.2241 87.805L94.2217 87.8075C93.5416 88.4899 92.7129 88.8333 91.6667 88.8333H87.0833C86.0371 88.8333 85.2084 88.4899 84.5283 87.8075L84.5259 87.805C83.8435 87.125 83.5 86.2962 83.5 85.25V80.6667V79.6667H82.5H27.5ZM25.6395 39.0863L25.1739 40.4167H26.5833H83.4167H84.8262L84.3605 39.0863L79.548 25.3363L79.3136 24.6667H78.6042H31.3958H30.6864L30.452 25.3363L25.6395 39.0863ZM75.625 67.9167C77.7969 67.9167 79.6747 67.1442 81.1996 65.6163C82.7276 64.0914 83.5 62.2136 83.5 60.0417C83.5 57.8698 82.7276 55.9919 81.1996 54.4671C79.6747 52.9391 77.7969 52.1667 75.625 52.1667C73.4535 52.1667 71.5759 52.9388 70.0512 54.4663C68.5227 55.9913 67.75 57.8694 67.75 60.0417C67.75 62.214 68.5227 64.0921 70.0512 65.6171C71.5759 67.1445 73.4535 67.9167 75.625 67.9167Z" stroke="#5A2FE1" stroke-width="2"/>
</svg>
