<svg width="120" height="120" viewBox="0 0 120 120" fill="none" xmlns="http://www.w3.org/2000/svg">
<g id="&#208;&#152;&#208;&#186;&#208;&#189;&#208;&#190;&#208;&#186;&#208;&#176;=&#208;&#144;&#208;&#178;&#209;&#130;&#208;&#190;">
<path id="Vector" d="M30 87H29V88V93C29 94.1654 28.6174 95.0934 27.8579 95.8529C27.0943 96.6165 26.1643 97 25 97H20C18.8357 97 17.9081 96.6165 17.1483 95.8541L17.1459 95.8517C16.3835 95.0919 16 94.1643 16 93V53.1699L26.4439 23.3304L26.4463 23.3233L26.4487 23.3162C26.8813 22.0185 27.6479 20.9849 28.7683 20.1909L28.7692 20.1902C29.8899 19.3938 31.1241 19 32.5 19H87.5C88.8755 19 90.1115 19.3936 91.2358 20.1902C92.353 20.984 93.1185 22.0177 93.5513 23.3162L93.5537 23.3233L93.5561 23.3304L104 53.1699V93C104 94.1643 103.617 95.0919 102.854 95.8517L102.852 95.8541C102.092 96.6165 101.164 97 100 97H95C93.8357 97 92.9081 96.6165 92.1483 95.8541L92.1459 95.8517C91.3835 95.0919 91 94.1643 91 93V88V87H90H30ZM28.0561 42.6696L27.5905 44H29H91H92.4095L91.9439 42.6696L86.6939 27.6696L86.4595 27H85.75H34.25H33.5405L33.3061 27.6697L28.0561 42.6696ZM37.5 74C39.8451 74 41.8702 73.167 43.5163 71.5179C45.1665 69.8715 46 67.8459 46 65.5C46 63.1545 45.1667 61.1291 43.5171 59.4829C41.8709 57.8333 39.8455 57 37.5 57C35.1545 57 33.1292 57.8333 31.4829 59.4829C29.8333 61.1291 29 63.1545 29 65.5C29 67.8455 29.8333 69.8709 31.4829 71.5171C33.1292 73.1667 35.1545 74 37.5 74ZM82.5 74C84.8455 74 86.8708 73.1667 88.5171 71.5171C90.1667 69.8709 91 67.8455 91 65.5C91 63.1545 90.1667 61.1291 88.5171 59.4829C86.8708 57.8333 84.8455 57 82.5 57C80.1545 57 78.1291 57.8333 76.4829 59.4829C74.8333 61.1291 74 63.1545 74 65.5C74 67.8455 74.8333 69.8709 76.4829 71.5171C78.1291 73.1667 80.1545 74 82.5 74Z" stroke="#5A2FE1" stroke-width="2"/>
</g>
</svg>
