<svg width="110" height="110" viewBox="0 0 110 110" fill="none" xmlns="http://www.w3.org/2000/svg">
<path d="M79.945 98.8074L79.9425 98.805C79.2601 98.1249 78.9166 97.2962 78.9166 96.25V64.1667V63.1667H77.9166H73.3333C71.0801 63.1667 69.1769 62.3754 67.5694 60.7652L67.5682 60.764C65.9579 59.1564 65.1666 57.2532 65.1666 55V32.0833C65.1666 26.0074 67.297 20.8584 71.5789 16.5794L71.5794 16.5789C75.6217 12.5339 80.4403 10.409 86.0833 10.1862V96.25C86.0833 97.2962 85.7399 98.1249 85.0574 98.805L85.055 98.8074C84.3749 99.4899 83.5462 99.8333 82.5 99.8333C81.4538 99.8333 80.625 99.4899 79.945 98.8074ZM33.0833 58.8958V58.1333L32.348 57.9315C28.6574 56.9184 25.5682 54.8978 23.0616 51.8446L23.0613 51.8442C20.5761 48.8206 19.3333 45.3037 19.3333 41.25V13.75C19.3333 12.7033 19.6757 11.8723 20.3558 11.1892C21.0389 10.509 21.8699 10.1667 22.9166 10.1667C23.9634 10.1667 24.7944 10.509 25.4775 11.1892C26.1576 11.8723 26.5 12.7033 26.5 13.75V41.25V42.25H27.5H32.0833H33.0833V41.25V13.75C33.0833 12.7033 33.4257 11.8723 34.1058 11.1892C34.7889 10.509 35.6199 10.1667 36.6666 10.1667C37.7133 10.1667 38.5443 10.509 39.2274 11.1891C39.9076 11.8722 40.25 12.7032 40.25 13.75V41.25V42.25H41.25H45.8333H46.8333V41.25V13.75C46.8333 12.7037 47.1769 11.8727 47.8604 11.1892C48.5402 10.5094 49.3693 10.1667 50.4166 10.1667C51.4633 10.1667 52.2943 10.509 52.9774 11.1891C53.6576 11.8722 54 12.7032 54 13.75V41.25C54 45.3037 52.7572 48.8206 50.272 51.8442L50.2717 51.8446C47.7651 54.8978 44.6759 56.9184 40.9853 57.9315L40.25 58.1333V58.8958V96.25C40.25 97.2973 39.9073 98.1264 39.2275 98.8062C38.5439 99.4898 37.7129 99.8333 36.6666 99.8333C35.6204 99.8333 34.7894 99.4898 34.1058 98.8062C33.426 98.1264 33.0833 97.2973 33.0833 96.25V58.8958Z" stroke="#5A2FE1" stroke-width="2"/>
</svg>
