<svg width="120" height="120" viewBox="0 0 120 120" fill="none" xmlns="http://www.w3.org/2000/svg">
<g id="&#208;&#152;&#208;&#186;&#208;&#189;&#208;&#190;&#208;&#186;&#208;&#176;=&#208;&#160;&#208;&#181;&#209;&#129;&#209;&#130;&#208;&#190;&#209;&#128;&#208;&#176;&#208;&#189;&#209;&#139;">
<path id="Vector" d="M87.1483 107.854L87.1459 107.852C86.3835 107.092 86 106.164 86 105V70V69H85H80C77.5176 69 75.4183 68.1271 73.6477 66.3535L73.6465 66.3523C71.8729 64.5817 71 62.4824 71 60V35C71 28.3477 73.3336 22.7074 78.0219 18.0223L78.0224 18.0219C82.4709 13.5703 87.7805 11.2417 94 11.0179V105C94 106.164 93.6165 107.092 92.8541 107.852L92.8517 107.854C92.0919 108.617 91.1643 109 90 109C88.8357 109 87.9081 108.617 87.1483 107.854ZM36 64.25V63.4875L35.2647 63.2857C31.2199 62.1753 27.8339 59.9603 25.0879 56.6155L25.0875 56.615C22.3627 53.2997 21 49.4426 21 45V15C21 13.8352 21.3823 12.9052 22.1421 12.1421C22.9052 11.3823 23.8352 11 25 11C26.1648 11 27.0948 11.3823 27.8579 12.1421C28.6178 12.9052 29 13.8352 29 15V45V46H30H35H36V45V15C36 13.8351 36.3823 12.9051 37.1423 12.1419C37.9053 11.3822 38.8353 11 40 11C41.1648 11 42.0948 11.3823 42.8579 12.1421C43.6177 12.9052 44 13.8352 44 15V45V46H45H50H51V45V15C51 13.8357 51.3835 12.9057 52.1471 12.1421C52.9066 11.3826 53.8346 11 55 11C56.1647 11 57.0947 11.3822 57.8578 12.142C58.6177 12.9051 59 13.8352 59 15V45C59 49.4426 57.6373 53.2997 54.9125 56.615L54.9121 56.6155C52.1661 59.9603 48.7801 62.1753 44.7353 63.2857L44 63.4875V64.25V105C44 106.165 43.6174 107.093 42.8579 107.853C42.0943 108.616 41.1643 109 40 109C38.8357 109 37.9057 108.616 37.1421 107.853C36.3826 107.093 36 106.165 36 105V64.25Z" stroke="#5A2FE1" stroke-width="2"/>
</g>
</svg>
