<svg width="120" height="120" viewBox="0 0 120 120" fill="none" xmlns="http://www.w3.org/2000/svg">
<g id="&#208;&#152;&#208;&#186;&#208;&#189;&#208;&#190;&#208;&#186;&#208;&#176;=&#208;&#152;&#208;&#179;&#209;&#128;&#208;&#190;&#208;&#178;&#209;&#139;&#208;&#181; &#208;&#191;&#209;&#128;&#208;&#190;&#208;&#181;&#208;&#186;&#209;&#130;&#209;&#139;">
<path id="Vector" d="M112.257 57.7269L112.257 57.7271C114.763 69.0514 115.667 77.7024 115.078 84.2266C114.306 92.7084 110.977 97.7082 105.439 99.5981L105.437 99.5988C101.909 100.811 98.2534 100.365 94.5079 98.1871C91.6743 96.5382 88.78 93.8861 85.6679 90.0092L85.6678 90.0091C83.0514 86.7505 80.1863 84.585 76.141 83.2587C72.1463 81.949 67.0485 81.4743 59.9997 81.4743C52.0951 81.4743 46.7541 82.1615 42.8109 83.5838C38.8185 85.0238 36.3195 87.1952 34.0624 90.0088C32.1587 92.378 29.8541 94.9572 27.1919 96.9404C24.5321 98.9217 21.5785 100.261 18.3593 100.262C16.9839 100.257 15.6192 100.021 14.322 99.5639L14.3166 99.562C9.67079 97.9542 6.59301 93.6612 5.35805 86.5735C4.12102 79.4739 4.7805 69.7547 7.4794 57.7158C12.5188 35.2539 19.891 23.8153 30.3401 20.7234C32.6689 20.0692 35.0773 19.7416 37.4963 19.75H37.4997C40.546 19.75 43.2148 20.4915 46.1919 21.3276L46.1926 21.3278L46.1981 21.3294C49.7871 22.3343 53.9504 23.5 59.9997 23.5C66.0466 23.5 70.2068 22.3329 73.7876 21.3283L73.7978 21.3254C73.7978 21.3254 73.7979 21.3254 73.798 21.3254C76.7726 20.4916 79.4439 19.75 82.4997 19.75L82.5044 19.75C84.8381 19.7392 87.161 20.0673 89.4004 20.724C99.9109 23.8273 107.29 35.2709 112.257 57.7269ZM73.1715 41.0779L74.1523 41.273L73.1715 41.078C72.9521 42.1812 73.0647 43.3248 73.4952 44.364C73.9257 45.4033 74.6546 46.2916 75.5899 46.9165C76.5252 47.5415 77.6249 47.875 78.7497 47.875C80.2582 47.875 81.7048 47.2758 82.7714 46.2092C83.838 45.1426 84.4372 43.6959 84.4372 42.1875C84.4372 41.0626 84.1037 39.963 83.4787 39.0277C82.8538 38.0924 81.9655 37.3634 80.9263 36.933C79.887 36.5025 78.7434 36.3899 77.6402 36.6093C76.5369 36.8288 75.5235 37.3704 74.7281 38.1659C73.9327 38.9613 73.391 39.9747 73.1715 41.0779ZM83.484 51.3904L84.4648 51.5855L83.484 51.3905C83.2646 52.4937 83.3772 53.6373 83.8077 54.6765C84.2382 55.7158 84.9671 56.6041 85.9024 57.229C86.8377 57.854 87.9374 58.1875 89.0622 58.1875C90.5707 58.1875 92.0173 57.5883 93.0839 56.5217C94.1505 55.4551 94.7497 54.0084 94.7497 52.5C94.7497 51.3751 94.4162 50.2755 93.7912 49.3402C93.1663 48.4049 92.278 47.6759 91.2388 47.2455C90.1995 46.815 89.0559 46.7024 87.9527 46.9218C86.8494 47.1413 85.836 47.6829 85.0406 48.4784C84.2452 49.2738 83.7035 50.2872 83.484 51.3904ZM42.2497 47.75V41.25C42.2497 39.9902 41.7493 38.7821 40.8585 37.8913C39.9677 37.0005 38.7595 36.5 37.4997 36.5C36.24 36.5 35.0318 37.0005 34.141 37.8913C33.2502 38.7821 32.7498 39.9902 32.7498 41.25V47.75H26.2498C24.99 47.75 23.7818 48.2505 22.891 49.1413C22.0002 50.0321 21.4998 51.2402 21.4998 52.5C21.4998 53.7598 22.0002 54.968 22.891 55.8588C23.7818 56.7496 24.99 57.25 26.2498 57.25H32.7498V63.75C32.7498 65.0098 33.2502 66.218 34.141 67.1088C35.0318 67.9996 36.24 68.5 37.4997 68.5C38.7595 68.5 39.9677 67.9996 40.8585 67.1088C41.7493 66.218 42.2497 65.0098 42.2497 63.75V57.25H48.7497C50.0095 57.25 51.2177 56.7496 52.1085 55.8588C52.9993 54.968 53.4997 53.7598 53.4997 52.5C53.4997 51.2402 52.9993 50.0321 52.1085 49.1413C51.2177 48.2505 50.0095 47.75 48.7497 47.75H42.2497ZM65.2774 57.229C66.2127 57.854 67.3124 58.1875 68.4372 58.1875C69.9457 58.1875 71.3923 57.5883 72.4589 56.5217C73.5255 55.4551 74.1247 54.0084 74.1247 52.5C74.1247 51.3751 73.7912 50.2755 73.1662 49.3402C72.5413 48.4049 71.653 47.6759 70.6138 47.2455C69.5745 46.815 68.4309 46.7024 67.3277 46.9218C66.2244 47.1413 65.211 47.6829 64.4156 48.4784C63.6202 49.2738 63.0785 50.2872 62.859 51.3904C62.6396 52.4937 62.7522 53.6373 63.1827 54.6765C63.6132 55.7158 64.3421 56.6041 65.2774 57.229ZM75.5885 67.5405C76.5241 68.1661 77.6243 68.5 78.7497 68.5C80.2557 68.5 81.7002 67.9028 82.7664 66.8392C83.8326 65.7757 84.4335 64.3327 84.4372 62.8267C84.4401 61.7013 84.1089 60.6003 83.4857 59.6631C82.8624 58.7259 81.9751 57.9947 80.9361 57.5621C79.8971 57.1294 78.7531 57.0147 77.6489 57.2326C76.5447 57.4504 75.53 57.991 74.7331 58.7858C73.9363 59.5807 73.3932 60.5941 73.1726 61.6977C72.952 62.8014 73.0638 63.9457 73.4938 64.9857C73.9239 66.0258 74.6529 66.9149 75.5885 67.5405Z" stroke="#5A2FE1" stroke-width="2"/>
</g>
</svg>
