<svg width="110" height="110" viewBox="0 0 110 110" fill="none" xmlns="http://www.w3.org/2000/svg">
<path d="M102.821 52.9343L102.821 52.9345C105.118 63.3119 105.944 71.2322 105.405 77.2002C104.699 84.9566 101.66 89.5015 96.6253 91.2194L96.6234 91.2201C93.4156 92.3219 90.0901 91.9187 86.6746 89.9329C84.0891 88.4284 81.4433 86.0056 78.5941 82.4562L78.594 82.4561C76.1869 79.4582 73.5476 77.4627 69.8221 76.2413C66.1472 75.0364 61.4633 74.6014 55 74.6014C47.7508 74.6014 42.8435 75.2314 39.2153 76.54C35.5379 77.8664 33.2352 79.8679 31.1591 82.4559C29.4156 84.6257 27.3082 86.9836 24.8764 88.7952C22.4469 90.6049 19.7566 91.823 16.8296 91.8232C15.5783 91.8189 14.3366 91.6043 13.1565 91.1883L13.1511 91.1864C8.93187 89.7263 6.12304 85.8253 4.99387 79.3447C3.86262 72.8522 4.46473 63.9553 6.93765 52.9244C11.5568 32.3359 18.3059 21.8965 27.8351 19.0765C29.9623 18.479 32.1621 18.1798 34.3715 18.1875H34.375C37.1542 18.1875 39.59 18.8637 42.3202 19.6305L42.321 19.6307L42.3269 19.6324C45.618 20.5539 49.4434 21.625 55 21.625C60.5544 21.625 64.3769 20.5526 67.6605 19.6314L67.6707 19.6285C70.3987 18.8639 72.8368 18.1875 75.625 18.1875L75.6296 18.1875C77.7608 18.1776 79.8821 18.4772 81.9271 19.0769C91.5127 21.9073 98.2683 32.3513 102.821 52.9343ZM38.8125 43.6875V37.8125C38.8125 36.6356 38.345 35.5069 37.5128 34.6747C36.6806 33.8425 35.5519 33.375 34.375 33.375C33.1981 33.375 32.0694 33.8425 31.2372 34.6747C30.405 35.5069 29.9375 36.6356 29.9375 37.8125V43.6875H24.0625C22.8856 43.6875 21.7569 44.155 20.9247 44.9872C20.0925 45.8194 19.625 46.9481 19.625 48.125C19.625 49.3019 20.0925 50.4306 20.9247 51.2628C21.7569 52.095 22.8856 52.5625 24.0625 52.5625H29.9375V58.4375C29.9375 59.6144 30.405 60.7431 31.2372 61.5753C32.0694 62.4075 33.1981 62.875 34.375 62.875C35.5519 62.875 36.6806 62.4075 37.5128 61.5753C38.345 60.7431 38.8125 59.6144 38.8125 58.4375V52.5625H44.6875C45.8644 52.5625 46.9931 52.095 47.8253 51.2628C48.6575 50.4306 49.125 49.3019 49.125 48.125C49.125 46.9481 48.6575 45.8194 47.8253 44.9872C46.9931 44.155 45.8644 43.6875 44.6875 43.6875H38.8125ZM59.7916 52.5292C60.6627 53.1112 61.6867 53.4219 62.7344 53.4219C64.1392 53.4219 65.4865 52.8638 66.4798 51.8705C67.4732 50.8771 68.0312 49.5298 68.0312 48.125C68.0312 47.0774 67.7206 46.0533 67.1386 45.1822C66.5565 44.3111 65.7293 43.6322 64.7614 43.2313C63.7935 42.8304 62.7285 42.7255 61.701 42.9299C60.6735 43.1343 59.7297 43.6388 58.9889 44.3795C58.2481 45.1203 57.7437 46.0641 57.5393 47.0916C57.3349 48.1191 57.4398 49.1841 57.8407 50.152C58.2416 51.1199 58.9205 51.9472 59.7916 52.5292ZM69.2433 61.9814C70.1147 62.564 71.1393 62.875 72.1875 62.875C73.59 62.875 74.9353 62.3188 75.9283 61.3283C76.9212 60.3378 77.4809 58.9939 77.4844 57.5914C77.487 56.5432 77.1786 55.5178 76.5981 54.645C76.0177 53.7722 75.1914 53.0912 74.2237 52.6883C73.2561 52.2853 72.1906 52.1785 71.1623 52.3814C70.1339 52.5843 69.1889 53.0877 68.4467 53.828C67.7046 54.5682 67.1988 55.512 66.9934 56.5399C66.7879 57.5677 66.892 58.6334 67.2926 59.6021C67.6931 60.5707 68.372 61.3988 69.2433 61.9814ZM69.2447 43.0761C70.1158 43.6581 71.1399 43.9688 72.1875 43.9688C73.5923 43.9688 74.9396 43.4107 75.933 42.4173C76.9263 41.424 77.4844 40.0767 77.4844 38.6719C77.4844 37.6243 77.1737 36.6002 76.5917 35.7291C76.0097 34.858 75.1824 34.1791 74.2145 33.7782C73.2466 33.3773 72.1816 33.2724 71.1541 33.4768C70.1266 33.6812 69.1828 34.1856 68.442 34.9264C67.7013 35.6672 67.1968 36.611 66.9924 37.6385C66.788 38.666 66.8929 39.731 67.2938 40.6989C67.6947 41.6668 68.3736 42.494 69.2447 43.0761ZM78.6978 52.5292C79.5689 53.1112 80.593 53.4219 81.6406 53.4219C83.0454 53.4219 84.3927 52.8638 85.3861 51.8705C86.3794 50.8771 86.9375 49.5298 86.9375 48.125C86.9375 47.0774 86.6268 46.0533 86.0448 45.1822C85.4628 44.3111 84.6355 43.6322 83.6676 43.2313C82.6998 42.8304 81.6348 42.7255 80.6073 42.9299C79.5798 43.1343 78.6359 43.6388 77.8952 44.3795C77.1544 45.1203 76.6499 46.0641 76.4455 47.0916C76.2411 48.1191 76.346 49.1841 76.7469 50.152C77.1479 51.1199 77.8268 51.9472 78.6978 52.5292Z" stroke="#5A2FE1" stroke-width="2"/>
</svg>
