<svg width="110" height="110" viewBox="0 0 110 110" fill="none" xmlns="http://www.w3.org/2000/svg">
<rect x="10.1667" y="30.3333" width="89.6667" height="62.1667" rx="14" stroke="#5A2FE1" stroke-width="2"/>
<path d="M54.0833 17.5H55.9167C63.1282 17.5 69.0352 23.0857 69.5473 30.1667H40.4527C40.9648 23.0857 46.8717 17.5 54.0833 17.5Z" stroke="#5A2FE1" stroke-width="2"/>
<path d="M59.125 67.5417V74.0833C59.125 75.1879 58.2296 76.0833 57.125 76.0833H51.9583C50.8538 76.0833 49.9583 75.1879 49.9583 74.0833V67.5416C49.9583 66.4371 49.0629 65.5416 47.9583 65.5416H41.4167C40.3121 65.5416 39.4167 64.6462 39.4167 63.5416V58.375C39.4167 57.2704 40.3121 56.375 41.4167 56.375H47.9583C49.0629 56.375 49.9583 55.4795 49.9583 54.375V47.8333C49.9583 46.7287 50.8538 45.8333 51.9583 45.8333H57.125C58.2296 45.8333 59.125 46.7287 59.125 47.8333V54.375C59.125 55.4796 60.0204 56.375 61.125 56.375H67.6667C68.7712 56.375 69.6667 57.2704 69.6667 58.375V63.5416C69.6667 64.6462 68.7712 65.5416 67.6667 65.5416H61.125C60.0204 65.5416 59.125 66.4371 59.125 67.5417Z" stroke="#5A2FE1" stroke-width="2"/>
</svg>
