<svg width="120" height="120" viewBox="0 0 120 120" fill="none" xmlns="http://www.w3.org/2000/svg">
<g id="&#208;&#152;&#208;&#186;&#208;&#189;&#208;&#190;&#208;&#186;&#208;&#176;=&#208;&#156;&#208;&#181;&#208;&#180;&#208;&#184;&#209;&#134;&#208;&#184;&#208;&#189;&#208;&#176;">
<g id="Group 1171274865">
<rect id="Rectangle 85" x="11" y="33" width="98" height="68" rx="14" stroke="#5A2FE1" stroke-width="2"/>
<path id="Rectangle 86" d="M44 33C44 25.268 50.268 19 58 19H62C69.732 19 76 25.268 76 33H44Z" stroke="#5A2FE1" stroke-width="2"/>
<path id="Vector 4" d="M64.5 73.5V81C64.5 82.1046 63.6046 83 62.5 83H56.5C55.3954 83 54.5 82.1046 54.5 81V73.5C54.5 72.3954 53.6046 71.5 52.5 71.5H45C43.8954 71.5 43 70.6046 43 69.5V63.5C43 62.3954 43.8954 61.5 45 61.5H52.5C53.6046 61.5 54.5 60.6046 54.5 59.5V52C54.5 50.8954 55.3954 50 56.5 50H62.5C63.6046 50 64.5 50.8954 64.5 52V59.5C64.5 60.6046 65.3954 61.5 66.5 61.5H74C75.1046 61.5 76 62.3954 76 63.5V69.5C76 70.6046 75.1046 71.5 74 71.5H66.5C65.3954 71.5 64.5 72.3954 64.5 73.5Z" stroke="#5A2FE1" stroke-width="2"/>
</g>
</g>
</svg>
