<svg width="120" height="120" viewBox="0 0 120 120" fill="none" xmlns="http://www.w3.org/2000/svg">
<g id="&#208;&#152;&#208;&#186;&#208;&#189;&#208;&#190;&#208;&#186;&#208;&#176;=HR">
<path id="Vector" d="M93.95 40C93.95 47.7521 87.7434 54 80 54C72.2523 54 66 47.7477 66 40C66 32.2523 72.2523 26 80 26C87.7434 26 93.95 32.2479 93.95 40ZM53.95 40C53.95 47.7521 47.7434 54 40 54C32.2523 54 26 47.7477 26 40C26 32.2523 32.2523 26 40 26C47.7434 26 53.95 32.2479 53.95 40ZM6 82.5C6 79.955 7.26728 77.6528 9.50842 75.5859C11.7564 73.5127 14.9169 71.7446 18.5028 70.3097C25.6762 67.4391 34.2999 66 40 66C45.7001 66 54.3238 67.4391 61.4972 70.3097C65.0831 71.7446 68.2436 73.5127 70.4916 75.5859C72.7327 77.6528 74 79.955 74 82.5V93C74 93.5523 73.5523 94 73 94H7C6.44772 94 6 93.5523 6 93V82.5ZM79.5603 67.6816C79.2643 67.3848 79.1823 66.9414 79.3065 66.5564C79.425 66.1891 79.6767 66 80 66C85.7001 66 94.3238 67.4391 101.497 70.3097C105.083 71.7446 108.244 73.5127 110.492 75.5859C112.733 77.6528 114 79.955 114 82.5V93C114 93.5523 113.552 94 113 94H87C86.4477 94 86 93.5523 86 93V82.5C86 76.4917 83.4589 71.5904 79.5603 67.6816Z" stroke="#5A2FE1" stroke-width="2"/>
</g>
</svg>
