<svg width="110" height="110" viewBox="0 0 110 110" fill="none" xmlns="http://www.w3.org/2000/svg">
<path d="M86.0375 36.6667C86.0375 43.7271 80.385 49.4167 73.3333 49.4167C66.2773 49.4167 60.5833 43.7227 60.5833 36.6667C60.5833 29.6106 66.2773 23.9167 73.3333 23.9167C80.385 23.9167 86.0375 29.6063 86.0375 36.6667ZM49.3708 36.6667C49.3708 43.7271 43.7183 49.4167 36.6666 49.4167C29.6106 49.4167 23.9166 43.7227 23.9166 36.6667C23.9166 29.6106 29.6106 23.9167 36.6666 23.9167C43.7183 23.9167 49.3708 29.6063 49.3708 36.6667ZM5.58331 75.625C5.58331 73.3227 6.72897 71.233 8.77252 69.3484C10.8229 67.4574 13.7098 65.8413 16.9918 64.5279C23.5574 61.9006 31.452 60.5834 36.6666 60.5834C41.8813 60.5834 49.7759 61.9006 56.3415 64.5279C59.6235 65.8413 62.5104 67.4574 64.5608 69.3484C66.6043 71.233 67.75 73.3227 67.75 75.625V85.0834C67.75 85.6356 67.3023 86.0834 66.75 86.0834H6.58331C6.03103 86.0834 5.58331 85.6356 5.58331 85.0834V75.625ZM78.9166 75.625C78.9166 70.0913 76.5755 65.5782 72.9893 61.9827C72.7425 61.7352 72.6715 61.3625 72.7769 61.0356C72.8766 60.7266 73.0798 60.5834 73.3333 60.5834C78.548 60.5834 86.4425 61.9006 93.0081 64.5279C96.2901 65.8413 99.177 67.4574 101.227 69.3484C103.271 71.233 104.417 73.3227 104.417 75.625V85.0834C104.417 85.6356 103.969 86.0834 103.417 86.0834H79.9166C79.3644 86.0834 78.9166 85.6356 78.9166 85.0834V75.625Z" stroke="#5A2FE1" stroke-width="2"/>
</svg>
