<svg width="120" height="120" viewBox="0 0 120 120" fill="none" xmlns="http://www.w3.org/2000/svg">
<g id="&#208;&#152;&#208;&#186;&#208;&#189;&#208;&#190;&#208;&#186;&#208;&#176;=&#208;&#156;&#208;&#176;&#209;&#128;&#208;&#186;&#208;&#181;&#209;&#130;&#208;&#191;&#208;&#187;&#208;&#181;&#208;&#185;&#209;&#129;">
<g id="Group 1171274866">
<path id="Vector" d="M73.6667 34.6111H74.6667V33.6111C74.6667 29.5887 73.0688 25.731 70.2245 22.8867C67.3802 20.0424 63.5224 18.4444 59.5 18.4444C55.4775 18.4444 51.6198 20.0424 48.7755 22.8867C45.9312 25.731 44.3333 29.5887 44.3333 33.6111V34.6111H45.3333H73.6667ZM82.1111 33.6111V34.6111H83.1111H92.5556C94.7952 34.6111 96.943 35.5008 98.5267 37.0844C100.11 38.6681 101 40.8159 101 43.0556V99.7222C101 101.962 100.11 104.11 98.5267 105.693C96.943 107.277 94.7952 108.167 92.5556 108.167H26.4444C24.2048 108.167 22.057 107.277 20.4733 105.693C18.8897 104.11 18 101.962 18 99.7222V43.0556C18 38.3662 21.7551 34.6111 26.4444 34.6111H35.8889H36.8889V33.6111C36.8889 27.6143 39.2711 21.863 43.5115 17.6226C47.7519 13.3822 53.5032 11 59.5 11C62.4693 11 65.4096 11.5849 68.1529 12.7212C70.8962 13.8575 73.3888 15.523 75.4885 17.6226C77.5881 19.7223 79.2536 22.2149 80.3899 24.9582C81.5263 27.7015 82.1111 30.6418 82.1111 33.6111Z" stroke="#5A2FE1" stroke-width="2"/>
<circle id="Ellipse 1134" cx="40.6109" cy="55.3333" r="3.72222" stroke="#5A2FE1" stroke-width="2"/>
<circle id="Ellipse 1135" cx="78.3892" cy="55.3333" r="3.72222" stroke="#5A2FE1" stroke-width="2"/>
</g>
</g>
</svg>
