<svg width="110" height="110" viewBox="0 0 110 110" fill="none" xmlns="http://www.w3.org/2000/svg">
<path d="M67.5278 31.8102H68.5278V30.8102C68.5278 27.1009 67.0542 23.5434 64.4313 20.9205C61.8084 18.2976 58.251 16.8241 54.5416 16.8241C50.8323 16.8241 47.2749 18.2976 44.652 20.9205C42.0291 23.5434 40.5555 27.1009 40.5555 30.8102V31.8102H41.5555H67.5278ZM75.1852 30.8102V31.8102H76.1852H84.8426C86.8734 31.8102 88.8211 32.617 90.2572 34.053C91.6932 35.4891 92.5 37.4367 92.5 39.4676V91.4121C92.5 93.4429 91.6932 95.3906 90.2572 96.8267C88.8211 98.2627 86.8734 99.0695 84.8426 99.0695H24.2407C22.2098 99.0695 20.2622 98.2627 18.8261 96.8267C17.3901 95.3906 16.5833 93.4429 16.5833 91.4121V39.4676C16.5833 35.215 19.9881 31.8102 24.2407 31.8102H32.8981H33.8981V30.8102C33.8981 25.3352 36.0731 20.0844 39.9445 16.213C43.8159 12.3416 49.0666 10.1667 54.5416 10.1667C57.2526 10.1667 59.937 10.7006 62.4416 11.7381C64.9462 12.7755 67.2219 14.2961 69.1388 16.213C71.0557 18.13 72.5763 20.4057 73.6138 22.9103C74.6512 25.4149 75.1852 28.0993 75.1852 30.8102Z" stroke="#5A2FE1" stroke-width="2"/>
<circle cx="37.2268" cy="50.7223" r="3.3287" stroke="#5A2FE1" stroke-width="2"/>
<circle cx="71.8565" cy="50.7223" r="3.3287" stroke="#5A2FE1" stroke-width="2"/>
</svg>
