<svg width="110" height="110" viewBox="0 0 110 110" fill="none" xmlns="http://www.w3.org/2000/svg">
<path d="M47.7093 8.44596L23.7747 17.4429C18.2587 19.5007 13.75 26.0091 13.75 31.8475V67.4045C13.75 73.0515 17.4913 80.4692 22.048 83.867L42.673 99.2288C49.436 104.301 60.564 104.301 67.327 99.2288L87.952 83.867C92.5087 80.4692 96.25 73.0515 96.25 67.4045V31.8475C96.25 25.9613 91.7413 19.4528 86.2253 17.395L62.2907 8.44596C58.2137 6.96243 51.6904 6.96243 47.7093 8.44596Z" stroke="#5A2FE1" stroke-width="2" stroke-linecap="round" stroke-linejoin="round"/>
<path d="M54.9517 57.5937C60.2497 57.5937 64.5447 53.3085 64.5447 48.0225C64.5447 42.7365 60.2497 38.4513 54.9517 38.4513C49.6536 38.4513 45.3586 42.7365 45.3586 48.0225C45.3586 53.3085 49.6536 57.5937 54.9517 57.5937Z" stroke="#5A2FE1" stroke-width="2" stroke-miterlimit="10" stroke-linecap="round" stroke-linejoin="round"/>
<path d="M54.9517 58.6469L54.9517 77.0236" stroke="#5A2FE1" stroke-width="2" stroke-miterlimit="10" stroke-linecap="round" stroke-linejoin="round"/>
</svg>
