<svg width="120" height="120" viewBox="0 0 120 120" fill="none" xmlns="http://www.w3.org/2000/svg">
<g id="&#208;&#152;&#208;&#186;&#208;&#189;&#208;&#190;&#208;&#186;&#208;&#176;=&#208;&#161;&#208;&#154;&#208;&#163;&#208;&#148;">
<g id="Group 1171274862">
<path id="Vector" d="M52.0465 9.2138L25.936 19.0286C19.9186 21.2735 15 28.3736 15 34.7428V73.5322C15 79.6926 19.0814 87.7846 24.0523 91.4913L46.5523 108.25C53.9302 113.783 66.0698 113.783 73.4477 108.25L95.9477 91.4913C100.919 87.7846 105 79.6926 105 73.5322V34.7428C105 28.3214 100.081 21.2213 94.064 18.9764L67.9535 9.2138C63.5058 7.5954 56.3895 7.5954 52.0465 9.2138Z" stroke="#5A2FE1" stroke-width="2" stroke-linecap="round" stroke-linejoin="round"/>
<path id="Vector_2" d="M59.9475 62.8294C65.7273 62.8294 70.4127 58.1547 70.4127 52.3881C70.4127 46.6215 65.7273 41.9468 59.9475 41.9468C54.1678 41.9468 49.4824 46.6215 49.4824 52.3881C49.4824 58.1547 54.1678 62.8294 59.9475 62.8294Z" stroke="#5A2FE1" stroke-width="2" stroke-miterlimit="10" stroke-linecap="round" stroke-linejoin="round"/>
<path id="Vector_3" d="M59.9473 63.9785L59.9473 84.0258" stroke="#5A2FE1" stroke-width="2" stroke-miterlimit="10" stroke-linecap="round" stroke-linejoin="round"/>
</g>
</g>
</svg>
