<svg width="120" height="120" viewBox="0 0 120 120" fill="none" xmlns="http://www.w3.org/2000/svg">
<g id="&#208;&#152;&#208;&#186;&#208;&#189;&#208;&#190;&#208;&#186;&#208;&#176;=&#208;&#161;&#208;&#190;&#209;&#134;&#208;&#184;&#208;&#176;&#208;&#187;&#209;&#140;&#208;&#189;&#209;&#139;&#208;&#181; &#209;&#129;&#208;&#181;&#209;&#130;&#208;&#184;">
<g id="Group 1171274863">
<path id="Vector" d="M42.5 94.7458H40C20 94.7458 10 89.7607 10 64.8355V39.9103C10 19.9701 20 10 40 10H80C100 10 110 19.9701 110 39.9103V64.8355C110 84.7757 100 94.7458 80 94.7458H77.5C75.95 94.7458 74.45 95.4935 73.5 96.7398L66 106.71C62.7 111.097 57.3 111.097 54 106.71L46.5 96.7398C45.7 95.6431 43.85 94.7458 42.5 94.7458Z" stroke="#5A2FE1" stroke-width="2" stroke-miterlimit="10" stroke-linecap="round" stroke-linejoin="round"/>
<circle id="Ellipse 1137" cx="40" cy="53" r="4" stroke="#5A2FE1" stroke-width="2"/>
<circle id="Ellipse 1136" cx="60" cy="53" r="4" stroke="#5A2FE1" stroke-width="2"/>
<circle id="Ellipse 1135" cx="80" cy="53" r="4" stroke="#5A2FE1" stroke-width="2"/>
</g>
</g>
</svg>
