<svg width="110" height="110" viewBox="0 0 110 110" fill="none" xmlns="http://www.w3.org/2000/svg">
<path d="M38.9583 86.8503H36.6667C18.3333 86.8503 9.16666 82.2807 9.16666 59.4326V36.5844C9.16666 18.3059 18.3333 9.16669 36.6667 9.16669H73.3333C91.6667 9.16669 100.833 18.3059 100.833 36.5844V59.4326C100.833 77.7111 91.6667 86.8503 73.3333 86.8503H71.0417C69.6208 86.8503 68.2458 87.5357 67.375 88.6782L60.5 97.8174C57.475 101.839 52.525 101.839 49.5 97.8174L42.625 88.6782C41.8917 87.6728 40.1958 86.8503 38.9583 86.8503Z" stroke="#5A2FE1" stroke-width="2" stroke-miterlimit="10" stroke-linecap="round" stroke-linejoin="round"/>
<circle cx="36.6666" cy="48.5833" r="3.58333" stroke="#5A2FE1" stroke-width="2"/>
<path d="M58.5833 48.5833C58.5833 50.5624 56.979 52.1667 55 52.1667C53.021 52.1667 51.4167 50.5624 51.4167 48.5833C51.4167 46.6043 53.021 45 55 45C56.979 45 58.5833 46.6043 58.5833 48.5833Z" stroke="#5A2FE1" stroke-width="2"/>
<path d="M76.9167 48.5833C76.9167 50.5624 75.3124 52.1667 73.3333 52.1667C71.3543 52.1667 69.75 50.5624 69.75 48.5833C69.75 46.6043 71.3543 45 73.3333 45C75.3124 45 76.9167 46.6043 76.9167 48.5833Z" stroke="#5A2FE1" stroke-width="2"/>
</svg>
