<svg width="120" height="120" viewBox="0 0 120 120" fill="none" xmlns="http://www.w3.org/2000/svg">
<g id="&#208;&#152;&#208;&#186;&#208;&#189;&#208;&#190;&#208;&#186;&#208;&#176;=&#208;&#164;&#208;&#184;&#209;&#130;&#208;&#189;&#208;&#181;&#209;&#129;">
<path id="Vector" d="M110 65.6316C103.545 62.9789 91.5789 52.4737 70.5263 68.2632C64.9921 65.1684 54.7368 57.7368 38.9474 70.8947C37.1026 63.3789 36.7342 46.2737 38.9474 31.4211C39.8684 29.2105 43.6684 27.6447 54.7368 39.3158L67.8947 26.1579C66.9737 20.4105 60 13 38.9474 13C31.0526 13 23.8474 19.75 20.5263 31.4211C16.3763 43.3553 10 70.8947 10 86.6842C10 91.5474 16.5789 102.474 41.5789 102.474C46.8421 102.474 62.2368 103.066 81.0526 94.5789L96.8421 107.737" stroke="#5A2FE1" stroke-width="2" stroke-linecap="round" stroke-linejoin="round"/>
</g>
</svg>
