<svg width="110" height="110" viewBox="0 0 110 110" fill="none" xmlns="http://www.w3.org/2000/svg">
<path d="M100.833 60.1623C94.916 57.7307 83.9474 48.1009 64.6491 62.5746C59.5761 59.7377 50.1754 52.9255 35.7018 64.9869C34.0108 58.0974 33.673 42.4176 35.7018 28.8027C36.5461 26.7763 40.0294 25.341 50.1754 36.0395L62.2368 23.9781C61.3926 18.7097 55 11.9167 35.7018 11.9167C28.4649 11.9167 21.8601 18.1042 18.8158 28.8027C15.0116 39.7423 9.16667 64.9869 9.16667 79.4605C9.16667 83.9184 15.1974 93.9342 38.114 93.9342C42.9386 93.9342 57.0504 94.477 74.2983 86.6974L88.7719 98.7588" stroke="#5A2FE1" stroke-width="2" stroke-linecap="round" stroke-linejoin="round"/>
</svg>
