<svg width="110" height="110" viewBox="0 0 110 110" fill="none" xmlns="http://www.w3.org/2000/svg">
<path d="M90.6666 99.3618L75.9271 93.5253C78.1761 88.3596 79.8523 83.6198 80.9483 79.3089C82.0099 75.1331 82.8081 70.1721 83.3481 64.4338L86.9913 66.835L86.9984 66.8396C88.1522 67.5861 89.0479 68.5648 89.6956 69.7889L90.6666 99.3618ZM90.6666 99.3618V73.6771C90.6666 72.3151 90.3457 71.0239 89.6964 69.7904L90.6666 99.3618ZM23.0086 66.8349L26.6518 64.4338C27.1919 70.1721 27.99 75.1331 29.0516 79.3089C30.1476 83.6198 31.8239 88.3596 34.0729 93.5253L19.3333 99.3618V73.6771C19.3333 72.3153 19.6557 71.0241 20.3081 69.7904L20.3089 69.7889C20.9536 68.5649 21.8477 67.5862 23.0016 66.8396L23.0016 66.8396L23.0086 66.8349ZM40.9617 31.516L40.9618 31.5158C44.5648 23.471 49.2524 17.3672 55 13.1481C60.7475 17.3672 65.4352 23.471 69.0382 31.5158L69.0382 31.516C72.7615 39.8257 74.625 48.6814 74.625 58.0937C74.625 63.9788 73.9837 69.6888 72.7028 75.2254L72.7028 75.2255C71.4682 80.5648 69.603 85.7114 67.1058 90.6667H42.886C40.3942 85.8595 38.5313 80.7718 37.2975 75.4011C36.0164 69.8247 35.375 64.0562 35.375 58.0937C35.375 48.6814 37.2384 39.8257 40.9617 31.516ZM62.1839 43.2339L62.1827 43.2327L48.5283 56.8883L47.8206 57.5948C47.821 57.5952 47.8214 57.5956 47.8218 57.596C49.8013 59.5783 52.2121 60.5833 55 60.5833C57.7884 60.5833 60.2008 59.578 62.1833 57.5954C64.1632 55.6156 65.1666 53.2046 65.1666 50.4167C65.1666 47.6288 64.1632 45.2166 62.1839 43.2339Z" stroke="#5A2FE1" stroke-width="2"/>
</svg>
