<svg width="120" height="120" viewBox="0 0 120 120" fill="none" xmlns="http://www.w3.org/2000/svg">
<g id="&#208;&#152;&#208;&#186;&#208;&#189;&#208;&#190;&#208;&#186;&#208;&#176;=&#208;&#161;&#209;&#130;&#208;&#176;&#209;&#128;&#209;&#130;&#208;&#176;&#208;&#191;&#209;&#139;">
<path id="Vector" d="M99 108.528L82.7087 102.078C85.1796 96.412 87.0189 91.2173 88.2192 86.4964C89.3851 81.9103 90.2598 76.4528 90.8489 70.1321L94.9497 72.835L94.9567 72.8396C96.2286 73.6625 97.2164 74.7419 97.9302 76.091L99 108.528ZM99 108.528V80.375C99 78.8742 98.6462 77.451 97.931 76.0925L99 108.528ZM25.0503 72.8349L29.1511 70.1321C29.7402 76.4528 30.6149 81.9103 31.7808 86.4964C32.9811 91.2173 34.8205 96.412 37.2913 102.078L21 108.528V80.375C21 78.8743 21.3554 77.4512 22.074 76.0925L22.0748 76.091C22.7853 74.742 23.7713 73.6626 25.0433 72.8396L25.0433 72.8396L25.0503 72.8349ZM44.6026 34.3439L44.6026 34.3437C48.5494 25.5313 53.6902 18.8458 60 14.2307C66.3098 18.8458 71.4506 25.5313 75.3974 34.3437L75.3974 34.3439C79.4646 43.4211 81.5 53.0946 81.5 63.375C81.5 69.8017 80.7997 76.0377 79.4007 82.0846L79.4007 82.0847C78.0481 87.9345 76.0024 93.5725 73.2623 99H46.7295C43.9948 93.7345 41.9515 88.1606 40.5996 82.2761C39.2005 76.1858 38.5 69.886 38.5 63.375C38.5 53.0946 40.5354 43.4211 44.6026 34.3439ZM67.7727 47.2285L67.7715 47.2273C65.6255 45.0849 63.017 44 60 44C56.9829 44 54.3758 45.085 52.2329 47.2279C50.087 49.3737 49 51.9824 49 55C49 58.0171 50.0867 60.624 52.2323 62.7665C54.375 64.9129 56.9824 66 60 66C63.0176 66 65.6262 64.913 67.7721 62.7671C69.915 60.6242 71 58.0171 71 55C71 51.983 69.9151 49.3745 67.7727 47.2285Z" stroke="#5A2FE1" stroke-width="2"/>
</g>
</svg>
