<svg width="120" height="120" viewBox="0 0 120 120" fill="none" xmlns="http://www.w3.org/2000/svg">
<g id="&#208;&#152;&#208;&#186;&#208;&#189;&#208;&#190;&#208;&#186;&#208;&#176;=&#208;&#158;&#208;&#177;&#209;&#128;&#208;&#176;&#208;&#183;&#208;&#190;&#208;&#178;&#208;&#176;&#208;&#189;&#208;&#184;&#208;&#181;">
<path id="Vector" d="M107.148 82.8541L107.146 82.8517C106.383 82.0919 106 81.1643 106 80V52.1841C106 50.6662 104.375 49.7015 103.043 50.4281L64.3963 71.497L64.3963 71.497L64.3894 71.5008C63.7095 71.8785 63.0161 72.1578 62.3079 72.3423L62.3031 72.3436C61.6063 72.5288 60.8403 72.625 60 72.625C59.1597 72.625 58.3937 72.5288 57.6969 72.3435L57.6921 72.3423C56.9839 72.1578 56.2905 71.8785 55.6107 71.5008L55.6042 71.4973L13.4792 48.4973L13.4634 48.4887L13.4472 48.4806C12.7862 48.1501 12.2885 47.6811 11.9317 47.0611L11.9292 47.0568C11.5584 46.42 11.375 45.7404 11.375 45C11.375 44.2596 11.5584 43.58 11.9292 42.9432L11.9317 42.9389C12.2885 42.3189 12.7862 41.8499 13.4472 41.5194L13.4628 41.5116L13.4781 41.5033L55.7281 18.5033L55.7281 18.5033L55.7356 18.4992C56.4163 18.121 57.109 17.8398 57.8145 17.6521C58.5234 17.4676 59.2512 17.375 60 17.375C60.7488 17.375 61.4766 17.4676 62.1855 17.6521C62.8911 17.8398 63.5837 18.121 64.2644 18.4992L64.2708 18.5027L111.896 44.5027L111.912 44.5114L111.928 44.5194C112.59 44.8504 113.09 45.3187 113.45 45.936C113.818 46.5767 114 47.259 114 48V80C114 81.1643 113.617 82.0919 112.854 82.8517L112.852 82.8541C112.092 83.6165 111.164 84 110 84C108.836 84 107.908 83.6165 107.148 82.8541ZM55.7356 101.501L55.7357 101.501L55.7251 101.495L30.7319 87.9988C30.7307 87.9981 30.7295 87.9975 30.7283 87.9968C29.2098 87.1609 28.0541 86.0554 27.2348 84.6793C26.4161 83.301 26 81.7496 26 80C26 72.1831 34.3561 67.2069 41.2289 70.931L52.8986 77.2542L52.9009 77.2555C54.0104 77.8529 55.1219 78.3866 56.2354 78.856C57.4408 79.3676 58.6982 79.625 60 79.625C61.3142 79.625 62.5986 79.3424 63.8456 78.789L63.8466 78.7886C64.9929 78.2784 66.1187 77.7257 67.2241 77.1305L67.225 77.13L78.7556 70.9055C85.6414 67.1884 94 72.175 94 80C94 81.7496 93.5839 83.301 92.7652 84.6793C91.946 86.0554 90.7903 87.1608 89.2718 87.9967C89.2706 87.9974 89.2693 87.9981 89.2681 87.9988L64.2749 101.495L64.2748 101.495L64.2644 101.501C63.5837 101.879 62.891 102.16 62.1854 102.348C61.4766 102.532 60.7488 102.625 60 102.625C59.2512 102.625 58.5234 102.532 57.8146 102.348C57.109 102.16 56.4163 101.879 55.7356 101.501Z" stroke="#5A2FE1" stroke-width="2"/>
</g>
</svg>
