<svg width="110" height="110" viewBox="0 0 110 110" fill="none" xmlns="http://www.w3.org/2000/svg">
<path d="M51.1315 92.9696L51.1315 92.9696C51.7496 93.313 52.3781 93.5681 53.0177 93.7383C53.6606 93.9056 54.3206 93.9896 55 93.9896C55.6794 93.9896 56.3395 93.9056 56.9823 93.7383C57.622 93.5681 58.2504 93.313 58.8685 92.9696L58.879 92.9638L58.879 92.9639L81.7889 80.5926C81.79 80.5919 81.7911 80.5913 81.7923 80.5907C83.172 79.8312 84.2202 78.828 84.9631 77.5802C85.7054 76.3305 86.0833 74.9232 86.0833 73.3334C86.0833 66.2235 78.4887 61.6927 72.2322 65.0701L61.6625 70.7758L61.6616 70.7763C60.6465 71.3229 59.6126 71.8305 58.56 72.299L58.559 72.2995C57.4058 72.8112 56.217 73.0729 55 73.0729C53.7955 73.0729 52.6318 72.8348 51.5166 72.3614C51.5162 72.3612 51.5158 72.3611 51.5154 72.3609L51.9063 71.4404C50.9132 71.0218 49.9201 70.5452 48.9271 70.0104L51.1315 92.9696ZM51.1315 92.9696L51.121 92.9639L28.2111 80.5926L51.1315 92.9696ZM98.2783 75.8908L98.2759 75.8884C97.5935 75.2083 97.25 74.3796 97.25 73.3334V47.9758C97.25 46.4579 95.6254 45.4932 94.2927 46.2198L58.9901 65.4658L58.9901 65.4658L58.9831 65.4696C58.3658 65.8126 57.7366 66.0659 57.0946 66.2331L57.0898 66.2344C56.4589 66.4021 55.7639 66.4896 55 66.4896C54.2361 66.4896 53.5412 66.4021 52.9102 66.2344L52.9054 66.2332C52.2634 66.0659 51.6342 65.8126 51.0169 65.4696L51.0105 65.4661L12.3959 44.3827L12.38 44.3741L12.3639 44.366C11.7723 44.0702 11.3284 43.6517 11.0096 43.0978L11.0071 43.0935C10.6746 42.5225 10.5104 41.914 10.5104 41.25C10.5104 40.586 10.6746 39.9775 11.0071 39.4066L11.0096 39.4022C11.3284 38.8484 11.7723 38.4298 12.3639 38.134L12.3795 38.1262L12.3948 38.1179L51.124 17.0346L51.124 17.0346L51.1315 17.0304C51.7496 16.687 52.3781 16.432 53.0178 16.2617C53.6606 16.0944 54.3206 16.0104 55 16.0104C55.6794 16.0104 56.3394 16.0944 56.9822 16.2617C57.6219 16.432 58.2504 16.687 58.8685 17.0304L58.875 17.034L102.531 40.8673L102.547 40.876L102.563 40.884C103.156 41.1803 103.602 41.5983 103.923 42.1498C104.254 42.7244 104.417 43.3354 104.417 44V73.3334C104.417 74.3796 104.073 75.2083 103.391 75.8884L103.388 75.8908C102.708 76.5732 101.88 76.9167 100.833 76.9167C99.7871 76.9167 98.9584 76.5732 98.2783 75.8908Z" stroke="#5A2FE1" stroke-width="2"/>
</svg>
