<svg width="120" height="120" viewBox="0 0 120 120" fill="none" xmlns="http://www.w3.org/2000/svg">
<g id="&#208;&#152;&#208;&#186;&#208;&#189;&#208;&#190;&#208;&#186;&#208;&#176;=WEB3">
<g id="world">
<path id="Vector" d="M60 110C87.6142 110 110 87.6142 110 60C110 32.3858 87.6142 10 60 10C32.3858 10 10 32.3858 10 60C10 87.6142 32.3858 110 60 110Z" stroke="#5A2FE1" stroke-width="2" stroke-linecap="round" stroke-linejoin="round"/>
<path id="Vector_2" d="M44.9978 13.8C35.2478 43.0001 35.8502 77.6001 45.6002 106.8" stroke="#5A2FE1" stroke-width="2" stroke-linecap="round" stroke-linejoin="round"/>
<path id="Vector_3" d="M74.4004 13.8C84.1504 43 84.7504 75.8 75.0004 105" stroke="#5A2FE1" stroke-width="2" stroke-linecap="round" stroke-linejoin="round"/>
<path id="Vector_4" d="M12 74.4001C41.2 84.1501 78.2 84.1501 107.4 74.4001" stroke="#5A2FE1" stroke-width="2" stroke-linecap="round" stroke-linejoin="round"/>
<path id="Vector_5" d="M12.6006 45.0001C41.8006 35.2501 77.6006 35.2499 106.801 44.9999" stroke="#5A2FE1" stroke-width="2" stroke-linecap="round" stroke-linejoin="round"/>
</g>
</g>
</svg>
