<svg width="110" height="110" viewBox="0 0 110 110" fill="none" xmlns="http://www.w3.org/2000/svg">
<path d="M55 100.833C80.3131 100.833 100.833 80.3131 100.833 55C100.833 29.687 80.3131 9.16669 55 9.16669C29.687 9.16669 9.16669 29.687 9.16669 55C9.16669 80.3131 29.687 100.833 55 100.833Z" stroke="#5A2FE1" stroke-width="2" stroke-linecap="round" stroke-linejoin="round"/>
<path d="M41.2482 12.6501C32.3107 39.4168 32.8629 71.1334 41.8004 97.9001" stroke="#5A2FE1" stroke-width="2" stroke-linecap="round" stroke-linejoin="round"/>
<path d="M68.2004 12.6501C77.1379 39.4168 77.6879 69.4834 68.7504 96.2501" stroke="#5A2FE1" stroke-width="2" stroke-linecap="round" stroke-linejoin="round"/>
<path d="M11.0004 68.2001C37.767 77.1376 71.6837 77.1376 98.4504 68.2001" stroke="#5A2FE1" stroke-width="2" stroke-linecap="round" stroke-linejoin="round"/>
<path d="M11.5504 41.2502C38.317 32.3127 71.1337 32.3125 97.9003 41.25" stroke="#5A2FE1" stroke-width="2" stroke-linecap="round" stroke-linejoin="round"/>
</svg>
