<svg width="24" height="26" viewBox="0 0 24 26" fill="none" xmlns="http://www.w3.org/2000/svg">
<g id="Frame" clip-path="url(#clip0_1_455)">
<g id="Group">
<g id="11 Hand pointing">
<path id="Vector" d="M19.6777 10.9445C19.2109 10.9004 18.7444 11.0312 18.3686 11.3116C18.3586 10.849 18.1821 10.4055 17.8715 10.0625C17.5609 9.71957 17.1371 9.50012 16.6777 9.44445C16.4181 9.41969 16.1562 9.44903 15.9086 9.53062C15.6609 9.6122 15.4329 9.74426 15.2388 9.91845C15.141 9.64373 14.9798 9.39593 14.7683 9.19512C14.5568 8.99431 14.301 8.84614 14.0216 8.76262C13.7422 8.6791 13.447 8.66257 13.16 8.71438C12.873 8.76619 12.6023 8.88488 12.3697 9.06083V5.81483C12.3747 5.34119 12.2048 4.88235 11.8926 4.52611C11.5805 4.16986 11.1479 3.94123 10.6777 3.88395C10.4173 3.85841 10.1544 3.88767 9.90592 3.96985C9.65747 4.05202 9.42897 4.18529 9.23512 4.36109C9.04128 4.53689 8.88638 4.75131 8.78039 4.99058C8.6744 5.22984 8.61966 5.48864 8.61971 5.75033V15.5003C8.61971 15.5998 8.65922 15.6952 8.72954 15.7655C8.79987 15.8358 8.89525 15.8753 8.99471 15.8753C9.09416 15.8753 9.18955 15.8358 9.25987 15.7655C9.3302 15.6952 9.36971 15.5998 9.36971 15.5003V5.75033C9.36983 5.5935 9.40268 5.43842 9.46616 5.295C9.52963 5.15159 9.62233 5.023 9.73833 4.91745C9.85448 4.81092 9.99194 4.73028 10.1416 4.68089C10.2913 4.6315 10.4497 4.61447 10.6065 4.63095C10.8912 4.66933 11.1519 4.81126 11.3387 5.02964C11.5254 5.24802 11.6252 5.52754 11.619 5.81483V15.1253C11.619 15.2248 11.6585 15.3202 11.7288 15.3905C11.7991 15.4608 11.8945 15.5003 11.994 15.5003C12.0934 15.5003 12.1888 15.4608 12.2591 15.3905C12.3295 15.3202 12.369 15.2248 12.369 15.1253V10.5608C12.3691 10.404 12.4019 10.2489 12.4654 10.1055C12.5289 9.96209 12.6216 9.8335 12.7376 9.72795C12.8537 9.62135 12.9911 9.54065 13.1408 9.49119C13.2905 9.44173 13.4489 9.42465 13.6057 9.44108C13.8908 9.47928 14.1517 9.62116 14.3388 9.83962C14.5258 10.0581 14.6259 10.3378 14.6197 10.6253V15.1253C14.6197 15.2248 14.6592 15.3202 14.7295 15.3905C14.7999 15.4608 14.8953 15.5003 14.9947 15.5003C15.0942 15.5003 15.1895 15.4608 15.2599 15.3905C15.3302 15.3202 15.3697 15.2248 15.3697 15.1253V11.3108C15.3698 11.154 15.4027 10.9989 15.4662 10.8555C15.5296 10.7121 15.6223 10.5835 15.7383 10.478C15.8543 10.3712 15.9918 10.2903 16.1415 10.2409C16.2912 10.1914 16.4497 10.1744 16.6065 10.1911C16.8914 10.2294 17.1522 10.3714 17.3391 10.5898C17.526 10.8083 17.6259 11.0879 17.6197 11.3753V15.1253C17.6197 15.2248 17.6592 15.3202 17.7295 15.3905C17.7999 15.4608 17.8953 15.5003 17.9947 15.5003C18.0942 15.5003 18.1895 15.4608 18.2599 15.3905C18.3302 15.3202 18.3697 15.2248 18.3697 15.1253V12.8108C18.3698 12.654 18.4027 12.4989 18.4662 12.3555C18.5296 12.2121 18.6223 12.0835 18.7383 11.978C18.8544 11.8712 18.9918 11.7904 19.1415 11.7409C19.2912 11.6915 19.4497 11.6745 19.6065 11.6911C19.8914 11.7294 20.1522 11.8714 20.3391 12.0898C20.526 12.3083 20.6259 12.5879 20.6197 12.8753V18.1253C20.6175 20.0143 19.8662 21.8253 18.5304 23.1611C17.1947 24.4968 15.3837 25.2481 13.4947 25.2503H13.3668C12.1075 25.249 10.871 24.9145 9.78273 24.2808C8.69446 23.6472 7.79317 22.7369 7.17033 21.6425L3.53546 15.2378C3.38541 14.9717 3.3417 14.6585 3.41314 14.3614C3.48458 14.0644 3.66586 13.8053 3.92052 13.6365C4.17518 13.4676 4.48433 13.4015 4.7858 13.4513C5.08726 13.5011 5.35868 13.6633 5.54546 13.9051L8.69996 17.9798C8.74804 18.041 8.81393 18.0856 8.88852 18.1077C8.96311 18.1297 9.0427 18.128 9.11628 18.1028C9.18985 18.0775 9.25376 18.0301 9.29917 17.9669C9.34458 17.9038 9.36923 17.8281 9.36971 17.7503V14.0003C9.36971 13.9009 9.3302 13.8055 9.25987 13.7352C9.18955 13.6648 9.09416 13.6253 8.99471 13.6253C8.89525 13.6253 8.79987 13.6648 8.72954 13.7352C8.65922 13.8055 8.61971 13.9009 8.61971 14.0003V16.6531L6.13833 13.4468C5.83534 13.0557 5.39556 12.7937 4.90733 12.7134C4.41911 12.6332 3.9186 12.7406 3.50635 13.0142C3.0941 13.2878 2.80065 13.7073 2.68494 14.1884C2.56923 14.6694 2.63984 15.1764 2.88258 15.6076L6.52008 22.0126C7.20825 23.222 8.20407 24.228 9.40653 24.9283C10.609 25.6287 11.9753 25.9985 13.3668 26.0003H13.4947C15.5826 25.9979 17.5842 25.1675 19.0605 23.6912C20.5369 22.2148 21.3673 20.2132 21.3697 18.1253V12.8753C21.3747 12.4017 21.2048 11.9429 20.8926 11.5866C20.5805 11.2304 20.1479 11.0017 19.6777 10.9445Z" fill="#BCBCBC"/>
<path id="Vector_2" d="M7.21979 8C7.29576 8 7.37024 7.97986 7.43486 7.94183C7.49949 7.90381 7.55172 7.8494 7.58569 7.78471C7.61967 7.72002 7.63405 7.6476 7.62723 7.57556C7.62041 7.50353 7.59265 7.43472 7.54706 7.37686C7.07181 6.77458 6.81522 6.04147 6.81602 5.28818C6.8162 4.76838 6.93782 4.25512 7.17207 3.78559C7.40631 3.31605 7.74731 2.902 8.17038 2.5734C8.59344 2.24481 9.08798 2.00991 9.61816 1.88572C10.1483 1.76153 10.7009 1.75115 11.2358 1.85534C11.7707 1.95953 12.2746 2.17568 12.711 2.48813C13.1473 2.80059 13.5052 3.20152 13.7587 3.66189C14.0122 4.12227 14.155 4.63056 14.1767 5.14995C14.1985 5.66934 14.0986 6.18682 13.8843 6.66492C13.8444 6.75943 13.845 6.86504 13.886 6.95912C13.9269 7.05321 14.0049 7.12829 14.1033 7.16827C14.2017 7.20825 14.3126 7.20996 14.4123 7.17302C14.512 7.13608 14.5925 7.06343 14.6366 6.97065C14.9474 6.27975 15.0618 5.52316 14.9683 4.77685C14.8749 4.03054 14.5768 3.32078 14.1041 2.71882C13.6313 2.11686 13.0006 1.6439 12.2751 1.34741C11.5497 1.05092 10.7551 0.941355 9.97105 1.0297C9.18705 1.11805 8.44125 1.4012 7.80855 1.85073C7.17585 2.30026 6.6785 2.90034 6.36645 3.59074C6.0544 4.28113 5.93862 5.03753 6.03074 5.78399C6.12287 6.53045 6.41965 7.24071 6.89129 7.84344C6.92944 7.89211 6.97901 7.93161 7.03604 7.9588C7.09308 7.98598 7.15601 8.00009 7.21979 8Z" fill="#BCBCBC"/>
</g>
</g>
</g>
<defs>
<clipPath id="clip0_1_455">
<rect width="24" height="26" fill="white"/>
</clipPath>
</defs>
</svg>
