<svg width="22" height="23" viewBox="0 0 22 23" fill="none" xmlns="http://www.w3.org/2000/svg">
<path d="M13.75 21.3542H8.24998C3.27248 21.3542 1.14581 19.2275 1.14581 14.25V8.75004C1.14581 3.77254 3.27248 1.64587 8.24998 1.64587H12.8333C13.2091 1.64587 13.5208 1.95754 13.5208 2.33337C13.5208 2.70921 13.2091 3.02087 12.8333 3.02087H8.24998C4.02415 3.02087 2.52081 4.52421 2.52081 8.75004V14.25C2.52081 18.4759 4.02415 19.9792 8.24998 19.9792H13.75C17.9758 19.9792 19.4791 18.4759 19.4791 14.25V9.66671C19.4791 9.29087 19.7908 8.97921 20.1666 8.97921C20.5425 8.97921 20.8541 9.29087 20.8541 9.66671V14.25C20.8541 19.2275 18.7275 21.3542 13.75 21.3542Z" fill="#BCBCBC"/>
<path d="M20.1666 10.3537H16.5C13.365 10.3537 12.1458 9.13454 12.1458 5.99954V2.33288C12.1458 2.05788 12.3108 1.80121 12.5675 1.70038C12.8241 1.59038 13.1175 1.65454 13.3191 1.84704L20.6525 9.18038C20.845 9.37288 20.9091 9.67537 20.7991 9.93204C20.6891 10.1887 20.4416 10.3537 20.1666 10.3537ZM13.5208 3.99204V5.99954C13.5208 8.36454 14.135 8.97871 16.5 8.97871H18.5075L13.5208 3.99204Z" fill="#BCBCBC"/>
</svg>
