<svg width="93" height="101" viewBox="0 0 93 101" fill="none" xmlns="http://www.w3.org/2000/svg">
<path d="M85.4358 53.6452C84.3052 53.9998 83.2214 54.4079 82.0907 54.6755C77.2069 55.8196 73.0723 53.7189 68.911 51.6315C64.7497 49.5442 60.5148 47.2695 56.1327 45.5501C54.1701 44.8 52.0785 44.4458 49.9783 44.5078C47.8782 44.5698 45.8111 45.0468 43.8962 45.9113C37.2528 48.7079 36.0486 56.1675 41.4877 60.8975C45.629 64.5035 50.6266 65.2394 55.8717 65.1591C61.0779 65.0612 66.1323 63.3888 70.3695 60.3622L70.7508 60.7436C69.7004 62.0214 68.8039 63.4799 67.5663 64.5503C62.475 68.9257 56.4538 70.4377 49.8505 69.9025C44.7847 69.6181 40.0318 67.3606 36.6106 63.6137C29.6929 56.0604 32.2753 44.7807 41.8089 40.9137C48.5459 38.1841 55.1224 38.8197 61.5183 41.9909C65.3585 43.8909 69.0849 46.005 72.9452 47.8649C75.7885 49.2029 78.8995 50.0125 82.0171 49.2899C84.0228 48.7112 85.9387 47.8579 87.7105 46.7543C88.781 46.1522 89.6707 45.5033 90.9151 46.199C92.1595 46.8948 92.3067 48.0121 92.2532 49.2163C91.6711 59.8872 87.9045 69.0395 79.3879 75.8836C75.9245 78.7087 71.923 80.8005 67.6265 82.0319C66.2349 82.4266 65.6595 82.9953 65.6662 84.5207C65.7147 87.9413 64.7511 91.3 62.8965 94.1747C60.4278 98.0015 56.6946 99.6138 52.3928 100.196C50.6935 100.417 48.9674 100.443 47.0808 100.571V95.2183C51.1685 94.8704 55.651 95.3923 58.3605 91.2912C59.8407 89.1081 60.4822 86.4636 60.1669 83.8449C59.0764 83.8449 58.0394 83.8449 57.0024 83.8449C47.2949 84.1527 38.2363 82.0854 30.0274 76.6864C18.3329 68.9993 15.2688 54.6086 22.8019 42.8472C26.1939 37.5419 31.0376 33.6816 35.5134 29.4066C38.0212 27.0374 40.3429 24.4786 42.4578 21.7529C47.5558 15.1096 41.3339 7.79713 35.6271 7.1348C33.9619 6.90882 32.2665 7.10465 30.6967 7.70431C29.1268 8.30397 27.7327 9.28826 26.6422 10.5669C23.297 14.1729 21.8586 18.6286 20.6209 23.4656H31.9274L32.2352 23.8938C31.5854 24.7858 30.848 25.6106 30.0341 26.3558C26.2006 29.246 21.678 30.4436 17.055 31.2865C13.0877 32.0158 9.10706 32.464 5.13307 31.2865C3.1996 30.7045 1.51366 29.721 0.530192 27.9414C0.110707 27.1035 -0.0654421 26.1648 0.0217389 25.2319C0.135473 23.8269 1.08548 23.4456 2.31648 24.1681C4.5818 25.5181 7.20555 26.1437 9.8363 25.9611C12.5726 25.8072 13.8504 24.8304 14.6599 22.2012C15.6367 19.0099 16.4797 15.7652 17.6772 12.6609C20.4403 5.52915 25.3242 0.845997 33.2655 0.0766207C39.0258 -0.478668 43.4814 2.01678 46.7797 6.50592C51.6636 13.156 51.3826 20.2477 45.8029 26.503C42.4043 30.3164 38.5039 33.6883 34.7908 37.2074C31.6331 40.2113 28.5756 43.2888 26.5685 47.2427C21.8051 56.609 23.6182 67.1863 33.7538 72.9131C44.8931 79.2019 56.7147 80.6002 68.7972 75.8702C78.5851 72.03 83.7232 64.3095 85.5763 54.1938C85.558 54.0048 85.5106 53.8198 85.4358 53.6452Z" fill="white"/>
<path d="M43.2529 85.9736L48.3642 86.8501C47.3072 96.29 40.6303 100.311 30.1133 99.9897V94.8382C31.1971 94.7445 32.2341 94.6241 33.2711 94.5639C39.7606 94.1959 42.062 91.7473 43.2529 85.9736Z" fill="white"/>
</svg>
