<svg width="31" height="32" viewBox="0 0 31 32" fill="none" xmlns="http://www.w3.org/2000/svg">
<path d="M28.7501 16.9832C28.7368 16.8964 28.6438 16.8554 28.5598 16.881C28.2321 16.9808 27.9132 17.0874 27.5823 17.1606C25.9414 17.5196 24.5522 16.8603 23.154 16.2051C21.7558 15.55 20.3329 14.8361 18.8605 14.2964C18.2011 14.061 17.4983 13.9498 16.7926 13.9693C16.087 13.9887 15.3925 14.1385 14.7491 14.4098C12.5169 15.2875 12.1123 17.6288 13.9398 19.1134C15.3313 20.2452 17.0104 20.4761 18.7728 20.4509C20.4952 20.4207 22.1682 19.9113 23.5783 18.9888C23.6169 18.9635 23.6679 18.9677 23.7016 18.9992C23.7409 19.0359 23.7439 19.0971 23.709 19.1381C23.3826 19.5208 23.093 19.9441 22.7021 20.2599C20.9915 21.6331 18.9684 22.1077 16.7497 21.9397C15.0476 21.8504 13.4506 21.1419 12.3011 19.9659C9.97676 17.5952 10.8444 14.0549 14.0477 12.8413C16.3114 11.9845 18.521 12.184 20.67 13.1793C21.9603 13.7757 23.2124 14.4392 24.5095 15.023C25.4648 15.4429 26.5101 15.697 27.5576 15.4702C28.2315 15.2886 28.8753 15.0208 29.4706 14.6744C29.8303 14.4854 30.1292 14.2817 30.5473 14.5001C30.9654 14.7185 31.0149 15.0691 30.9969 15.4471C30.8013 18.7963 29.5358 21.6688 26.6742 23.8169C25.5105 24.7036 24.166 25.3602 22.7224 25.7467C22.2548 25.8705 22.0615 26.049 22.0637 26.5278C22.08 27.6014 21.7562 28.6556 21.1331 29.5578C20.3036 30.7589 19.0493 31.2649 17.6039 31.4476C17.3127 31.483 17.0192 31.5025 16.7174 31.5184C16.2307 31.5441 15.8191 31.153 15.8191 30.6656C15.8191 30.225 16.158 29.8627 16.5981 29.8415C17.7345 29.7867 18.8687 29.6995 19.609 28.6528C19.8915 28.2637 20.083 27.8279 20.1764 27.3734C20.2988 26.7778 19.7607 26.3157 19.1527 26.3157C15.891 26.4123 12.8473 25.7635 10.0892 24.0689C6.15982 21.6562 5.13028 17.1396 7.66142 13.4481C8.8011 11.783 10.4286 10.5714 11.9324 9.22959C12.7751 8.486 13.5552 7.6829 14.2658 6.82741C15.9787 4.74231 13.8881 2.44722 11.9707 2.23934C11.4111 2.16841 10.8415 2.22988 10.314 2.41809C9.78655 2.6063 9.31813 2.91523 8.95172 3.31654C8.50615 3.76522 8.16126 4.25581 7.88135 4.77915C7.22567 6.00503 8.30005 7.36496 9.69026 7.36496H10.6617C10.7032 7.36496 10.7424 7.38426 10.7677 7.41719C10.805 7.46556 10.8049 7.5331 10.7664 7.58047C10.5642 7.82945 10.3383 8.06094 10.0914 8.27208C8.80335 9.1792 7.28377 9.55506 5.73047 9.81964C4.39746 10.0485 3.05996 10.1892 1.7247 9.81964C1.07506 9.63695 0.508586 9.32828 0.178144 8.76973C0.0371974 8.50676 -0.0219884 8.21213 0.00730422 7.91932C0.0455186 7.47836 0.364719 7.35866 0.778334 7.58544C1.53948 8.00916 2.42105 8.20551 3.30498 8.14819C4.22437 8.0999 4.65372 7.79332 4.92572 6.9681C5.25391 5.96649 5.53715 4.94809 5.93952 3.97378C6.86791 1.73539 8.50888 0.265526 11.1771 0.0240483C13.1126 -0.150236 14.6097 0.632989 15.7179 2.04196C17.3589 4.12916 17.2645 6.35496 15.3897 8.31828C14.2478 9.51517 12.9373 10.5735 11.6897 11.678C10.6287 12.6208 9.60136 13.5867 8.92699 14.8277C7.32648 17.7674 7.93566 21.0872 11.3412 22.8846C15.084 24.8584 19.056 25.2973 23.1158 23.8127C26.3954 22.6107 28.1214 20.1975 28.7484 17.0355C28.7518 17.0182 28.7528 17.0005 28.7501 16.9832Z" fill="#313131"/>
<path d="M14.5326 26.9839L16.25 27.259C15.8948 30.2218 13.6514 31.4838 10.1177 31.383V29.7661C10.4818 29.7367 10.8303 29.6989 11.1787 29.68C13.3592 29.5645 14.1324 28.796 14.5326 26.9839Z" fill="#313131"/>
<path d="M13.2625 4.56892C13.4622 4.56892 13.6228 4.74358 13.5012 4.90193C13.4202 5.00751 13.3014 5.10344 13.1517 5.18424C13.0019 5.26504 12.8242 5.32914 12.6285 5.37287C12.4329 5.4166 12.2232 5.43911 12.0115 5.43911C11.7997 5.43911 11.59 5.4166 11.3944 5.37287C11.1987 5.32914 11.021 5.26504 10.8712 5.18424C10.7215 5.10344 10.6027 5.00751 10.5217 4.90193C10.4001 4.74358 10.5608 4.56892 10.7604 4.56892L12.0115 4.56892H13.2625Z" fill="#FF0000"/>
<path d="M12.0842 4.56296C12.0842 4.70928 12.0249 4.84962 11.9192 4.95308C11.8136 5.05655 11.6703 5.11468 11.5209 5.11468C11.3715 5.11468 11.2282 5.05655 11.1225 4.95308C11.0169 4.84962 10.9575 4.70928 10.9575 4.56296L11.5209 4.56296H12.0842Z" fill="#313131"/>
</svg>
